<svg width="210" height="32" viewBox="0 0 210 32" fill="none" xmlns="http://www.w3.org/2000/svg">
<g clip-path="url(#clip0_110_1060)">
<path fill-rule="evenodd" clip-rule="evenodd" d="M20.2187 26.1136C20.3789 26.0553 20.51 25.9533 20.6411 25.8368C20.8596 25.6183 21.0053 25.3124 21.0053 24.9628C21.0053 24.6278 20.8596 24.3219 20.6411 24.0888C20.4226 23.8703 20.1167 23.7246 19.7671 23.7246C19.4321 23.7246 19.1262 23.8703 18.8931 24.0888C18.6746 24.3073 18.5289 24.6132 18.5289 24.9628C18.5289 25.2978 18.66 25.6037 18.8931 25.8368C18.9951 25.9388 19.1116 26.0116 19.2281 26.0844C19.1699 26.5506 19.0242 26.9584 18.8494 27.3372C18.6163 27.8033 18.3104 28.1966 17.9463 28.5171C17.3927 28.4879 16.8683 28.3568 16.4022 28.1238C15.6156 27.7305 14.9892 27.0313 14.5959 25.9388C14.2026 24.8317 14.0715 23.3167 14.29 21.3502V21.3211C14.4211 19.1215 13.0518 18.5243 11.5223 18.4223C10.7794 18.3786 10.0219 18.466 9.41013 18.5388C8.92943 18.5971 8.56526 18.6408 8.52156 18.6117C8.43416 18.568 8.36132 18.5243 8.31762 18.466C8.20109 18.3349 8.14282 18.1455 8.14282 17.927C8.14282 17.6648 8.21565 17.3589 8.34676 17.0822C8.47786 16.7763 8.65266 16.5141 8.84202 16.3538C9.30816 15.9314 9.83256 15.742 10.4298 15.7712C11.0707 15.8149 11.8136 16.1208 12.644 16.6889C12.6731 16.7034 12.6877 16.718 12.7168 16.7326C13.0664 16.8928 13.3723 16.9802 13.6491 16.9948C13.955 17.0093 14.2172 16.9511 14.4502 16.82C14.6833 16.6889 14.8581 16.4704 14.9892 16.2082C15.1057 15.9605 15.1786 15.6401 15.2077 15.2759C15.2368 15.072 15.3388 15.0428 15.5136 14.9991C15.5719 14.9846 15.6156 14.97 15.7321 14.9263C16.0234 14.8389 16.1982 14.6932 16.2419 14.431C16.2711 14.3145 16.2565 14.2125 16.2128 14.1106C16.4313 14.0232 16.5478 13.8629 16.6061 13.6735C16.6498 13.5133 16.6207 13.3968 16.5915 13.2657C16.5624 13.1346 16.5187 12.9889 16.475 12.8432L16.4604 12.7995C16.81 12.8141 17.0868 12.785 17.3053 12.6976C17.451 12.6393 17.5821 12.5519 17.6695 12.4354C17.7715 12.3043 17.8443 12.1586 17.8589 11.9984C17.8734 11.8236 17.8443 11.6342 17.7715 11.4303C17.7715 11.4157 17.7569 11.4011 17.7569 11.3866C17.6258 11.1244 17.4073 10.6874 17.2179 10.2358C17.0431 9.82793 16.8829 9.42006 16.8683 9.18699C16.8537 9.08502 17.0577 8.69172 17.1742 8.45865L17.2179 8.37125C17.7715 7.26417 18.0919 6.2008 18.1648 5.10829C18.2376 4.01579 18.0774 2.92328 17.6549 1.74337C17.5821 1.53944 17.3781 1.39377 17.1451 1.4229C16.8829 1.45204 16.6789 1.6851 16.7081 1.96187C16.9266 3.98665 16.2711 5.4579 15.1494 6.60867C13.9841 7.78858 12.3235 8.64802 10.6192 9.39092C10.59 9.40549 10.5755 9.40549 10.5609 9.42006C10.3861 9.02675 10.255 8.63345 10.1822 8.24015C9.93453 7.06024 10.0511 5.8512 10.4881 4.78783C10.9251 3.70988 11.668 2.76305 12.6585 2.07841C13.7365 1.3355 15.1057 0.898499 16.6789 0.971333C19.9419 1.117 23.0009 2.31148 25.4336 4.27799C27.8662 6.22993 29.6871 8.93935 30.5319 12.1149C31.4496 15.5381 31.1 19.0487 29.7308 22.1077C28.3615 25.1667 25.9871 27.7596 22.8261 29.3765C19.6651 30.9789 16.1691 31.3722 12.8916 30.6875C9.61406 29.9883 6.56961 28.2112 4.3409 25.4581C2.11218 22.7049 0.99054 19.3546 0.99054 16.0188C0.99054 12.7704 2.02478 9.52202 4.12239 6.81261C4.16609 6.81261 4.22436 6.82717 4.26806 6.82717C4.6031 6.82717 4.909 6.69607 5.14207 6.463C5.36057 6.2445 5.50624 5.9386 5.50624 5.589C5.50624 5.25396 5.37514 4.94806 5.14207 4.71499C4.92357 4.49649 4.61766 4.35082 4.26806 4.35082C3.93303 4.35082 3.62712 4.48192 3.39406 4.71499C3.17555 4.93349 3.02989 5.23939 3.02989 5.589C3.02989 5.8512 3.11729 6.1134 3.26295 6.30277C1.07794 9.17242 0 12.581 0 16.0042C0 19.5731 1.19447 23.1274 3.56886 26.0699C5.94324 28.9978 9.19163 30.906 12.6731 31.6489C16.1545 32.3918 19.8982 31.9694 23.2486 30.2505C26.6135 28.5317 29.1481 25.764 30.6048 22.5156C32.0614 19.2672 32.4256 15.5235 31.4496 11.8818C30.5465 8.48778 28.5946 5.60356 26.0162 3.52052C23.4088 1.4229 20.1604 0.155594 16.6789 0.00992674C14.9018 -0.0774738 13.3286 0.417797 12.0904 1.27724C10.9396 2.06384 10.0802 3.17091 9.57036 4.42366C9.06053 5.6764 8.91486 7.07481 9.20619 8.44408C9.30816 8.92479 9.4684 9.39092 9.67233 9.85706C7.93889 10.8185 6.74441 12.1295 6.01607 13.6153C5.31687 15.0283 5.0401 16.616 5.09837 18.2329C5.1712 19.8353 5.5645 21.4668 6.24914 22.9963C7.54558 25.9388 9.83256 28.5462 12.6294 29.9301C13.3577 30.2942 14.1152 30.4836 14.8581 30.5273C15.8778 30.5856 16.8683 30.3525 17.7277 29.8864C17.9317 29.7698 18.1211 29.6533 18.3104 29.5076C18.66 29.5076 19.0096 29.4785 19.3738 29.4202C20.9179 29.1726 22.5639 28.4588 24.0352 27.4391C25.419 26.4777 26.5989 25.225 27.4146 23.914C28.143 22.7486 28.58 21.525 28.6091 20.4034C28.7548 20.3451 28.8713 20.2577 28.9879 20.1412C29.2064 19.9227 29.352 19.6168 29.352 19.2672C29.352 18.9322 29.2064 18.6262 28.9879 18.3932C28.7694 18.1747 28.4635 18.029 28.1139 18.029C27.7788 18.029 27.4729 18.1601 27.2398 18.3932C27.0213 18.6117 26.8757 18.9176 26.8757 19.2672C26.8757 19.6022 27.0068 19.9081 27.2398 20.1412C27.3564 20.2577 27.4875 20.3451 27.6331 20.4034C27.604 21.3357 27.2107 22.3845 26.5843 23.3896C25.8414 24.5986 24.7489 25.7494 23.4671 26.638C22.156 27.5557 20.6994 28.1966 19.3447 28.4443C19.4903 28.2403 19.6214 28.0072 19.738 27.7742C19.9856 27.2789 20.1458 26.7254 20.2187 26.1136ZM4.44286 5.39963C4.48656 5.44333 4.5157 5.5016 4.5157 5.57443C4.5157 5.64726 4.48656 5.70553 4.44286 5.74923C4.39916 5.79293 4.3409 5.82207 4.26806 5.82207C4.19523 5.82207 4.13696 5.79293 4.09326 5.74923C4.04956 5.70553 4.02043 5.64726 4.02043 5.57443C4.02043 5.5016 4.04956 5.44333 4.09326 5.39963C4.13696 5.35593 4.19523 5.3268 4.26806 5.3268C4.32633 5.3268 4.3846 5.35593 4.44286 5.39963ZM12.7459 11.372C12.4983 11.372 12.2652 11.4448 12.0758 11.5759C11.6534 11.1681 11.3038 10.7311 11.0125 10.2941C12.8042 9.50746 14.5668 8.60432 15.8341 7.30787C16.373 6.7689 16.81 6.1571 17.1305 5.47246C17.014 6.2882 16.7518 7.10394 16.3293 7.96338L16.2856 8.05078C16.1254 8.37125 15.8341 8.92479 15.8778 9.31809C15.9215 9.66769 16.0963 10.163 16.3002 10.6437C16.4896 11.0807 16.7081 11.5322 16.8537 11.8236V11.8381C16.7226 11.8673 16.5041 11.8673 16.2128 11.8236C16.1691 11.8236 16.1254 11.8236 16.0817 11.8236C15.8632 11.8381 15.6884 11.9255 15.5719 12.0712C15.4408 12.2314 15.3825 12.4208 15.3971 12.6539V12.683C15.4116 12.8141 15.4553 12.9743 15.5136 13.1346L15.5282 13.2074C15.3242 13.222 15.1203 13.2657 14.9746 13.4405C14.9601 13.455 14.9455 13.4696 14.9455 13.4842C14.7998 13.6736 14.7707 13.8921 14.9455 14.1688C14.5522 14.2999 14.3046 14.4893 14.2172 15.1885C14.2172 15.2031 14.2172 15.2176 14.2172 15.2468C14.2026 15.4944 14.1589 15.6983 14.0861 15.844C14.0424 15.9314 13.9987 16.0042 13.9404 16.0334C13.8821 16.0625 13.8093 16.0771 13.7073 16.0771C13.5617 16.0625 13.3723 16.0188 13.1538 15.9168C12.1924 15.2613 11.3038 14.8972 10.4881 14.8535C9.61406 14.7952 8.84202 15.072 8.17195 15.6983C7.89518 15.9605 7.63298 16.3393 7.44362 16.7617C7.26881 17.1404 7.16685 17.5774 7.16685 17.9853C7.16685 18.4369 7.28338 18.8593 7.58928 19.1944C7.73495 19.3546 7.90975 19.4711 8.12825 19.5731C8.41959 19.7042 8.90029 19.6459 9.52666 19.5731C10.1093 19.5003 10.8231 19.4274 11.464 19.4566C12.4837 19.5148 13.3869 19.9081 13.314 21.3065C13.0955 23.3896 13.2558 25.0356 13.6928 26.2884C14.1735 27.6431 14.9746 28.5171 15.9797 29.0124C16.2128 29.1289 16.4459 29.2163 16.6789 29.2891C16.1254 29.4931 15.5136 29.595 14.9018 29.5513C14.29 29.5222 13.6636 29.362 13.0518 29.0561C10.4589 27.7742 8.33219 25.3561 7.13771 22.6175C6.51134 21.19 6.13261 19.6751 6.07434 18.2038C6.01607 16.7471 6.26371 15.3196 6.89008 14.0669C7.54558 12.7558 8.59439 11.5905 10.1385 10.7311C10.5026 11.3137 10.9688 11.8818 11.5369 12.4062C11.5223 12.4645 11.5223 12.5373 11.5223 12.6102C11.5223 12.9452 11.668 13.2511 11.8865 13.4842C12.105 13.7027 12.4109 13.8484 12.7605 13.8484C13.0955 13.8484 13.4014 13.7173 13.6345 13.4842C13.853 13.2657 13.9987 12.9598 13.9987 12.6102C13.9987 12.2751 13.8676 11.9692 13.6345 11.7362C13.3869 11.5177 13.081 11.372 12.7459 11.372ZM12.9207 12.4208C12.9644 12.4645 12.9936 12.5228 12.9936 12.5956C12.9936 12.6684 12.9644 12.7267 12.9207 12.7704C12.877 12.8141 12.8188 12.8432 12.7459 12.8432C12.6731 12.8432 12.6148 12.8141 12.5711 12.7704C12.5274 12.7267 12.4983 12.6539 12.4983 12.5956C12.4983 12.5228 12.5274 12.4645 12.5711 12.4208C12.6148 12.3771 12.6731 12.348 12.7459 12.348C12.8188 12.348 12.877 12.3771 12.9207 12.4208ZM19.9565 24.8026C20.0002 24.8463 20.0293 24.9045 20.0293 24.9774C20.0293 25.0502 20.0002 25.1085 19.9565 25.1522C19.9128 25.1959 19.8545 25.225 19.7817 25.225C19.7088 25.225 19.6506 25.1959 19.6069 25.1522C19.5632 25.1085 19.534 25.0502 19.534 24.9774C19.534 24.9045 19.5632 24.8463 19.6069 24.8026C19.6506 24.7589 19.7088 24.7297 19.7817 24.7297C19.8399 24.7297 19.8982 24.7589 19.9565 24.8026ZM28.2887 19.0924C28.3324 19.1361 28.3615 19.1944 28.3615 19.2672C28.3615 19.34 28.3324 19.3983 28.2887 19.442C28.245 19.4857 28.1867 19.5148 28.1139 19.5148C28.041 19.5148 27.9828 19.4857 27.9391 19.442C27.8954 19.3983 27.8662 19.34 27.8662 19.2672C27.8662 19.1944 27.8954 19.1361 27.9391 19.0924C27.9828 19.0487 28.041 19.0196 28.1139 19.0196C28.1721 19.0196 28.245 19.0487 28.2887 19.0924Z" fill="white"/>
<path d="M47.8663 24.9553H36.4314V10.5342H38.6892V22.6829H47.8663V24.9553Z" fill="white"/>
<path d="M62.3748 12.7993H50.9253V10.5269H62.3748V12.7993ZM62.3748 24.9625H50.9253V16.6158H61.5882V18.8882H53.2123V22.7047H62.3748V24.9625Z" fill="white"/>
<path d="M67.7208 10.5342H65.4338V24.9553H67.7208V10.5342Z" fill="white"/>
<path d="M82.2438 24.9625H79.9568V20.4323C79.9568 19.5874 79.2722 18.8882 78.4128 18.8882H73.0668V24.9625H70.7798V16.6158H78.3982C79.2576 16.6158 79.9423 15.9166 79.9423 15.0717V14.3433C79.9423 13.4985 79.2576 12.7993 78.3982 12.7993H70.7798V10.5269H78.3982C80.4958 10.5269 82.2147 12.2457 82.2147 14.3433V15.0717C82.2147 16.0914 81.8068 17.0382 81.1076 17.752C81.8068 18.4657 82.2147 19.4271 82.2147 20.4323V24.9625H82.2438Z" fill="white"/>
<path d="M99.0831 24.9625H96.7379L94.3635 14.4162C94.145 13.4693 93.3147 12.7993 92.3533 12.7993H92.0183C91.0569 12.7993 90.212 13.4693 90.008 14.4162L87.6337 24.9625H85.303L87.8376 13.717C88.26 11.8524 89.9061 10.5269 91.8289 10.5269H92.5718C94.48 10.5269 96.1406 11.8524 96.5631 13.717L99.0831 24.9625Z" fill="white"/>
<path fill-rule="evenodd" clip-rule="evenodd" d="M94.2034 20.2867C94.2034 21.3356 93.3585 22.1804 92.3097 22.1804C91.2609 22.1804 90.416 21.3356 90.416 20.2867C90.416 19.2379 91.2609 18.3931 92.3097 18.3931C93.3585 18.3931 94.2034 19.2379 94.2034 20.2867Z" fill="white"/>
<path fill-rule="evenodd" clip-rule="evenodd" d="M92.8632 20.2864C92.8632 20.5923 92.6155 20.84 92.3096 20.84C92.0037 20.84 91.7561 20.5923 91.7561 20.2864C91.7561 19.9805 92.0037 19.7329 92.3096 19.7329C92.6155 19.7329 92.8632 19.9805 92.8632 20.2864Z" fill="white"/>
<path d="M111.654 19.6025V21.1465C111.654 21.9912 112.339 22.6757 113.184 22.6758H116.957C117.802 22.6756 118.486 21.9911 118.486 21.1465V20.9131H120.744V21.1465C120.744 23.2293 119.04 24.9334 116.957 24.9336H113.184C111.101 24.9335 109.397 23.2293 109.396 21.1465V19.6025H111.654ZM116.957 10.6143C119.04 10.6145 120.744 12.3187 120.744 14.4014V14.6494H118.486V14.4014C118.486 13.5568 117.802 12.8723 116.957 12.8721H113.184C112.339 12.8722 111.655 13.5568 111.654 14.4014V15.8291H109.396V14.4014C109.397 12.3186 111.101 10.6144 113.184 10.6143H116.957Z" fill="white"/>
<path d="M126.046 22.6978V24.9263H123.803V22.6978H126.046ZM126.046 16.6519H132.878V10.6216H135.121V24.9263H132.878V18.896H126.046V18.9243H123.803V10.6216H126.046V16.6519Z" fill="white"/>
<path d="M151.96 24.9918H149.615L147.241 14.4455C147.022 13.4986 146.192 12.8286 145.23 12.8286H144.895C143.934 12.8286 143.089 13.4986 142.885 14.4455L140.511 24.9918H138.18L140.715 13.7463C141.137 11.8817 142.783 10.5562 144.706 10.5562H145.449C147.357 10.5562 149.018 11.8817 149.44 13.7463L151.96 24.9918Z" fill="white"/>
<path fill-rule="evenodd" clip-rule="evenodd" d="M147.081 20.316C147.081 21.3648 146.236 22.2097 145.187 22.2097C144.138 22.2097 143.293 21.3648 143.293 20.316C143.293 19.2672 144.138 18.4224 145.187 18.4224C146.236 18.4224 147.081 19.2672 147.081 20.316Z" fill="white"/>
<path fill-rule="evenodd" clip-rule="evenodd" d="M145.74 20.3157C145.74 20.6216 145.493 20.8693 145.187 20.8693C144.881 20.8693 144.633 20.6216 144.633 20.3157C144.633 20.0098 144.881 19.7622 145.187 19.7622C145.493 19.7622 145.74 20.0098 145.74 20.3157Z" fill="white"/>
<path d="M161.793 16.6519V24.9263H159.564V16.6519H161.793ZM166.338 12.8794H155.02V10.6216H166.338V12.8794Z" fill="white"/>
<path d="M176.957 10.6216C179.025 10.6218 180.73 12.3259 180.73 14.4087V15.1372C180.73 16.1423 180.336 17.0748 179.637 17.7886C180.336 18.4878 180.73 19.4348 180.73 20.4253V21.1538C180.729 23.2219 179.025 24.926 176.957 24.9263H169.397V22.6685H176.957C177.802 22.6682 178.486 21.9837 178.487 21.1392V20.4106C178.487 19.5805 177.802 18.8816 176.957 18.8813H171.655V18.896H169.397V10.6216H176.957ZM171.655 16.6372H176.957V16.6519C177.802 16.6516 178.487 15.9673 178.487 15.1226V14.394C178.486 13.5495 177.802 12.865 176.957 12.8647H171.655V16.6372Z" fill="white"/>
<path d="M191.349 24.9334H187.576C185.493 24.9334 183.789 23.2291 183.789 21.146V14.4016C183.789 12.3186 185.493 10.6143 187.576 10.6143H191.349C193.432 10.6143 195.136 12.3186 195.136 14.4016V21.146C195.136 23.2291 193.432 24.9334 191.349 24.9334ZM191.349 22.6755C192.194 22.6755 192.878 21.9909 192.878 21.146V14.4016C192.878 13.5567 192.194 12.8721 191.349 12.8721H187.576C186.731 12.8721 186.046 13.5567 186.046 14.4016V21.146C186.046 21.9909 186.731 22.6755 187.576 22.6755H191.349Z" fill="white"/>
<path d="M204.969 16.6519V24.9263H202.74V16.6519H204.969ZM209.513 12.8794H198.195V10.6216H209.513V12.8794Z" fill="white"/>
</g>
<defs>
<clipPath id="clip0_110_1060">
<rect width="209.951" height="32" fill="white"/>
</clipPath>
</defs>
</svg>
